<svg height="483" viewBox="0 0 446 483" width="446" xmlns="http://www.w3.org/2000/svg"><g fill="none" fill-rule="evenodd" transform="translate(0 -168)"><path d="m0 417h201l-201-249z" fill="#cdfeff" transform="matrix(-1 0 0 -1 201 585)"/><path d="m57 651h389l-389-483z" fill="#4fd5d6" transform="matrix(-1 0 0 -1 503 819)"/><path d="m109.978168 81.7319028 322.021832 393.2680972h-53.454068l-336.545932-413z" fill="#fff" transform="matrix(-1 0 0 -1 474 537)"/><path d="m262.612238 158-128.612238-158 53.595384 15.5738498 116.404616 142.3123822zm90.086312 59 89.30145 109h-42.147478l-88.852522-108.978306z" fill="#ed2125" transform="matrix(-1 0 0 -1 576 326)"/><g fill="#fff"><path d="m135.859626 15.6230804 255.140374 311.3769196h-42.352069l-266.647931-327z" transform="matrix(-1 0 0 -1 473 327)"/><path d="m199.870541 152.685464 94.129459 113.314536h-15.625035l-98.374965-119z" transform="matrix(-1 0 0 -1 474 413)"/><path d="m105.967397 181.062414 278.032603 344.937586h-4.643425l-290.356575-358z" transform="matrix(-1 0 0 -1 473 694)"/></g></g></svg>