<svg height="104" viewBox="0 0 73 104" width="73" xmlns="http://www.w3.org/2000/svg"><g fill="none" fill-rule="evenodd" stroke="#231f20" stroke-linecap="round" transform="translate(2 2)"><path d="m11.4877 18.928c.254-1.646.714-3.208 1.323-4.679 4.264-10.294 15.781-16.133 26.95-12.819l7.333 2.175c16.699 4.953 25.467 23.241 18.874 39.363 0 0-.912 2.199-2.444 5.428-6.736 11.512-13.983 21.88-18.924 35.017-2.38 4.509-4.476 8.06-9.562 11.008-1.622 1.144-3.347 2.166-5.188 3.045-1.904.524-3.86.875-5.847 1.045-3.974.341-8.07-.043-12.102-1.239-6.475-1.921-10.888-7.637-11.359-14.108-.094-1.294-.031-2.617.215-3.941" stroke-width="5"/><path d="m10.6752 81.0364c-.312 1.442-.022 2.887.715 4.084.737 1.198 1.907 2.135 3.354 2.564 2.747.815 5.576 1.106 8.403.864 1.073-.092 2.143-.263 3.195-.507 1.006-.526 1.989-1.127 2.934-1.793.242-.17.491-.331.747-.479 1.27-.737 2.168-1.487 2.98-2.49.813-1.002 1.54-2.257 2.47-4 1.745-6.587 5.745-12.587 9.519-19.44.867-1.494 1.742-2.968 2.62-4.426.877-1.458 1.756-2.901 2.631-4.336 1.465-2.403 2.977-4.884 4.43-7.357 1.271-2.698 2.04-4.539 2.04-4.538 2.106-5.148 1.94-10.745-.465-15.761-2.405-5.015-6.666-8.648-11.998-10.23l-7.333-2.175c-3.407-1.01-6.947-.538-9.97 1.33-1.511.933-2.769 2.139-3.726 3.549-.958 1.41-1.614 3.023-1.914 4.784 6.911 1.013 11.911 5.013 15.911 10.013 4 9-2 20-11 23-4 2-9-4-12-1s0 7 .954 11.012" stroke-width="4"/></g></svg>