<svg height="495" viewBox="0 0 427 495" width="427" xmlns="http://www.w3.org/2000/svg"><g fill="none" fill-rule="evenodd" transform="translate(-566 -325)"><path d="m792 834h212l-212-263z" fill="#400d12" transform=""/><path d="m567 834h410l-410-509z" fill="#ed2024" transform=""/><path d="m662 551 238.506113 283h16.493887l-235.820594-283z" fill="#fff" transform="matrix(-1 0 0 -1 1579 1385)"/><path d="m702 722 95.402445 112h6.597555l-94.328237-112z" fill="#400d12" transform="matrix(-1 0 0 -1 1506 1556)"/><g fill="#fff"><path d="m351 250 492.912634 584h34.087366l-487.36256-584z" transform="matrix(-1 0 0 -1 1229 1084)"/><path d="m0 0 704.294522 834h48.705478l-696.3643411-834z" transform="matrix(-1 0 0 -1 753 834)"/><path d="m626 782 95.402445 112h6.597555l-94.328237-112z" transform="matrix(-1 0 0 -1 1354 1676)"/></g></g></svg>