<svg height="97" viewBox="0 0 113 97" width="113" xmlns="http://www.w3.org/2000/svg"><g fill="none" fill-rule="evenodd" stroke="#231f20" stroke-linecap="round" stroke-width="4" transform="translate(2 3)"><path d="m.0002.5368s20.629-5.793 28.895 20.675c.813 2.606 3.293 5.979 5.579 7.471l16.775 10.953c.67.438.559 1.452-.191 1.733l-9.761 3.66c-1.586.595-2.389 2.362-1.795 3.947l.302.804c.503 1.34-.177 2.834-1.517 3.337l-8.46 3.172c-.946.354-.798 1.735.201 1.881l7.149 1.048c1.846.27 3.131 1.977 2.879 3.826l-.069.504c-.211 1.552-.003 3.131.619 4.568 2.148 4.959 6.47 17.427-2.588 20.823-11.389 4.271-30.606 1.27-30.606 1.27"/><path d="m83.0315 27.6101c16.97 3.224 28.113 19.593 24.89 36.563-1.142 6.013-3.935 11.294-7.82 15.463"/><path d="m72.6662 40.0154c12.688 2.41 21.019 14.649 18.609 27.336-.854 4.496-2.942 8.444-5.846 11.562"/></g></svg>